# xmcd CD database file
#
# Track frame offsets:
#	150
#	15942
#	217775
#	218525
#	219275
#	220025
#	220775
#	221525
#	222275
#	223025
#	223775
#	224525
#	225275
#	226025
#	238175
#
# Disc length: 3221 seconds
#
# Revision: 0
# Processed by: cddbd v1.5.2PL0 Copyright (c) Steve Scherf et al.
# Submitted via: CDex 1.51
#
DISCID=dd0c930f
DTITLE=Rod Stewart - Stardust... The great American songbook Vol. 3
DYEAR=2004
DGENRE=Jazz
TTITLE0=Embraceable you
TTITLE1=For sentimental reasons
TTITLE2=Blue moon
TTITLE3=What a wonderful world
TTITLE4=Stardust
TTITLE5=Manhattan
TTITLE6='S wonderful
TTITLE7=Isn't it romantic
TTITLE8=I can't get started
TTITLE9=But not for me
TTITLE10=A kiss to build a dream on
TTITLE11=Babu, it's cold outside
TTITLE12=Night and day
TTITLE13=A nightingale sang
TTITLE14=Data
EXTD=YEAR: 2004
EXTT0=
EXTT1=
EXTT2=
EXTT3=
EXTT4=
EXTT5=
EXTT6=
EXTT7=
EXTT8=
EXTT9=
EXTT10=
EXTT11=
EXTT12=
EXTT13=
EXTT14=
PLAYORDER=
